<svg width="135" height="63" viewBox="0 0 135 63" fill="none" xmlns="http://www.w3.org/2000/svg">
<path d="M10.691 44.9963C8.08681 44.9963 6.09247 44.2546 4.70797 42.7712C3.35643 41.2878 2.68066 39.1945 2.68066 36.4915V17.8996C2.68066 15.1965 3.35643 13.1033 4.70797 11.6199C6.09247 10.1365 8.08681 9.39478 10.691 9.39478C13.2952 9.39478 15.273 10.1365 16.6246 11.6199C18.0091 13.1033 18.7013 15.1965 18.7013 17.8996V21.5586H13.5589V17.5534C13.5589 15.4108 12.6524 14.3394 10.8393 14.3394C9.0263 14.3394 8.11978 15.4108 8.11978 17.5534V36.887C8.11978 38.9967 9.0263 40.0516 10.8393 40.0516C12.6524 40.0516 13.5589 38.9967 13.5589 36.887V31.5963H18.7013V36.4915C18.7013 39.1945 18.0091 41.2878 16.6246 42.7712C15.273 44.2546 13.2952 44.9963 10.691 44.9963Z" fill="white"/>
<path d="M24.0224 16.8118H28.3737V44.5018H24.0224V16.8118Z" fill="white"/>
<path d="M33.6104 16.8118H45.4775V20.7675H37.9617V28.0856H43.9348V32.0413H37.9617V40.5461H45.4775V44.5018H33.6104V16.8118ZM37.487 10.4035H41.6009L44.8446 14.9526H41.5614L39.544 12.7769L37.5265 14.9526H34.2433L37.487 10.4035Z" fill="white"/>
<path d="M49.9586 16.8118H55.4175L59.6501 33.3862H59.7292V16.8118H63.6059V44.5018H59.1359L53.9143 24.2881H53.8352V44.5018H49.9586V16.8118Z" fill="white"/>
<path d="M74.9492 44.8974C72.8659 44.8974 71.2704 44.304 70.1628 43.1173C69.0815 41.9306 68.5409 40.256 68.5409 38.0935V23.22C68.5409 21.0576 69.0815 19.383 70.1628 18.1963C71.2704 17.0095 72.8659 16.4162 74.9492 16.4162C77.0325 16.4162 78.6148 17.0095 79.6961 18.1963C80.8037 19.383 81.3575 21.0576 81.3575 23.22V26.1472H77.2435V22.9431C77.2435 21.229 76.5183 20.3719 75.0679 20.3719C73.6174 20.3719 72.8922 21.229 72.8922 22.9431V38.41C72.8922 40.0978 73.6174 40.9416 75.0679 40.9416C76.5183 40.9416 77.2435 40.0978 77.2435 38.41V34.1774H81.3575V38.0935C81.3575 40.256 80.8037 41.9306 79.6961 43.1173C78.6148 44.304 77.0325 44.8974 74.9492 44.8974Z" fill="white"/>
<path d="M85.9387 16.8118H90.29V44.5018H85.9387V16.8118Z" fill="white"/>
<path d="M98.889 16.8118H104.783L109.293 44.5018H104.941L104.15 39.0033V39.0825H99.2055L98.4143 44.5018H94.3795L98.889 16.8118ZM103.636 35.3245L101.698 21.6377H101.618L99.7197 35.3245H103.636Z" fill="white"/>
<path fill-rule="evenodd" clip-rule="evenodd" d="M3.25426 44.1121L3.24626 44.1033C1.46203 42.145 0.703125 39.5138 0.703125 36.4915V17.8996C0.703125 14.8774 1.46203 12.2462 3.24626 10.2879L3.25426 10.2791L3.26237 10.2704C5.12004 8.28005 7.70337 7.41699 10.6913 7.41699C13.6722 7.41699 16.2492 8.27671 18.0788 10.279C19.9001 12.2357 20.6795 14.8702 20.6795 17.8996V23.5366H11.5814V17.5535C11.5814 16.7139 11.3968 16.4529 11.3695 16.4206L11.3686 16.4196C11.362 16.4117 11.3514 16.3991 11.3045 16.3806C11.2436 16.3566 11.1024 16.3174 10.8397 16.3174C10.5769 16.3174 10.4357 16.3566 10.3748 16.3806C10.3279 16.3991 10.3173 16.4117 10.3107 16.4196L10.3099 16.4206C10.2825 16.4529 10.098 16.7139 10.098 17.5535V36.8871C10.098 37.7043 10.2799 37.948 10.3 37.9714C10.3043 37.9764 10.3132 37.9897 10.3651 38.0099C10.429 38.0347 10.5737 38.0738 10.8397 38.0738C11.1056 38.0738 11.2503 38.0347 11.3142 38.0099C11.3631 37.9909 11.3738 37.978 11.3785 37.9724L11.3793 37.9714C11.3994 37.948 11.5814 37.7043 11.5814 36.8871V29.6185H20.6795V36.4915C20.6795 39.5209 19.9002 42.1554 18.0789 44.1121C16.2493 46.1144 13.6723 46.9742 10.6913 46.9742C7.70337 46.9742 5.12004 46.1111 3.26237 44.1208L3.25426 44.1121ZM16.6249 42.7712C18.0094 41.2878 18.7016 39.1946 18.7016 36.4915V31.5963H13.5592V36.8871C13.5592 38.9968 12.6527 40.0517 10.8397 40.0517C9.02662 40.0517 8.1201 38.9968 8.1201 36.8871V17.5535C8.1201 15.4108 9.02662 14.3395 10.8397 14.3395C12.6527 14.3395 13.5592 15.4108 13.5592 17.5535V21.5587H18.7016V17.8996C18.7016 15.1966 18.0094 13.1033 16.6249 11.6199C15.2734 10.1365 13.2955 9.39485 10.6913 9.39485C8.08714 9.39485 6.09279 10.1365 4.70829 11.6199C3.35675 13.1033 2.68098 15.1966 2.68098 17.8996V36.4915C2.68098 39.1946 3.35675 41.2878 4.70829 42.7712C6.09279 44.2546 8.08714 44.9963 10.6913 44.9963C13.2955 44.9963 15.2734 44.2546 16.6249 42.7712ZM22.0448 14.834H30.3519V46.4797H22.0448V14.834ZM34.2436 14.9526L37.4873 10.4036H41.6012L44.8449 14.9526H41.5617L39.5443 12.777L37.5269 14.9526H34.2436ZM33.6107 16.8118V44.5019H45.4779V40.5461H37.962V32.0413H43.9351V28.0856H37.962V20.7675H45.4779V16.8118H33.6107ZM47.4557 16.9305V22.7454H39.9398V26.1078H45.913V34.0192H39.9398V38.5683H47.4557V46.4797H31.6328V16.9305H30.4041L31.6328 15.2073V14.834H31.8991L36.4684 8.4257H42.6201L47.1895 14.834H47.4557V15.2073L47.9811 15.9441V14.834H56.9541L57.7517 17.9574V14.834H65.584V46.4797H57.6043L55.8134 39.5466V46.4797H47.9811V16.9305H47.4557ZM53.8355 24.2881H53.9147L59.1362 44.5019H63.6062V16.8118H59.7296V33.3863H59.6505L55.4178 16.8118H49.9589V44.5019H53.8355V24.2881ZM68.7091 44.4582L68.7011 44.4494C67.1871 42.7878 66.5634 40.5753 66.5634 38.0936V23.2201C66.5634 20.7384 67.1871 18.5259 68.7011 16.8643L68.7091 16.8555L68.7172 16.8468C70.2979 15.1531 72.4824 14.4384 74.9495 14.4384C77.4097 14.4384 79.5911 15.1498 81.1503 16.8554C82.6946 18.5153 83.3356 20.7311 83.3356 23.2201V28.1252H75.266V22.9432C75.266 22.6488 75.2342 22.462 75.2046 22.3564C75.1703 22.3527 75.1253 22.3498 75.0682 22.3498C75.0111 22.3498 74.9661 22.3527 74.9318 22.3564C74.9021 22.462 74.8704 22.6488 74.8704 22.9432V38.4101C74.8704 38.6817 74.8987 38.8562 74.9255 38.9569C74.9613 38.9608 75.0083 38.9639 75.0682 38.9639C75.128 38.9639 75.1751 38.9608 75.2109 38.9569C75.2377 38.8562 75.266 38.6817 75.266 38.4101V32.1996H83.3356V38.0936C83.3356 40.5826 82.6946 42.7985 81.1502 44.4584C79.591 46.1639 77.4097 46.8753 74.9495 46.8753C72.4824 46.8753 70.2979 46.1606 68.7172 44.4669L68.7091 44.4582ZM79.6964 43.1174C80.804 41.9306 81.3578 40.2561 81.3578 38.0936V34.1774H77.2438V38.4101C77.2438 40.0978 76.5186 40.9417 75.0682 40.9417C73.6178 40.9417 72.8925 40.0978 72.8925 38.4101V22.9432C72.8925 21.229 73.6178 20.372 75.0682 20.372C76.5186 20.372 77.2438 21.229 77.2438 22.9432V26.1473H81.3578V23.2201C81.3578 21.0576 80.804 19.383 79.6964 18.1963C78.6152 17.0096 77.0329 16.4163 74.9495 16.4163C72.8662 16.4163 71.2707 17.0096 70.1631 18.1963C69.0819 19.383 68.5412 21.0576 68.5412 23.2201V38.0936C68.5412 40.2561 69.0819 41.9306 70.1631 43.1174C71.2707 44.3041 72.8662 44.8974 74.9495 44.8974C77.0329 44.8974 78.6152 44.3041 79.6964 43.1174ZM83.9611 14.834H92.2682V45.1635L97.2075 14.834H106.465L111.619 46.4797H103.228L102.448 41.0604H100.916L100.125 46.4797H83.9611V14.834ZM99.2058 39.0825H104.15V39.0034L104.942 44.5019H109.293L104.783 16.8118H98.8893L94.3798 44.5019H98.4147L99.2058 39.0825ZM99.72 35.3246H103.636L101.698 21.6378H101.619L99.72 35.3246ZM24.0227 16.8118V44.5019H28.374V16.8118H24.0227ZM85.939 16.8118V44.5019H90.2903V16.8118H85.939Z" fill="#252B51"/>
<path d="M90.6023 57.9004C88.7757 58.5041 87.2057 58.4329 85.8922 57.6867C84.5787 56.9406 83.5609 55.6421 82.8388 53.7912C82.238 52.2512 82.0475 50.7192 82.2674 49.195C82.4872 47.6709 83.0957 46.3213 84.0929 45.1464C85.0846 43.9573 86.3863 43.0963 87.998 42.5636C89.5636 42.0461 91.0075 42.1271 92.3297 42.8066C93.6617 43.4669 94.708 44.772 95.4686 46.7217C95.8765 47.7672 96.0793 48.8645 96.0771 50.0137C96.0749 51.1628 95.8625 52.2618 95.4399 53.3107C97.1856 54.0097 98.0859 54.4298 98.1411 54.5711C98.2844 54.9385 98.2746 55.2687 98.1117 55.5618C97.9696 55.8639 97.6837 56.086 97.2539 56.2281C96.9316 56.3346 95.9114 56.0737 94.1933 55.4453C93.2575 56.6 92.0605 57.4184 90.6023 57.9004ZM90.1805 55.8865C90.8405 55.6683 91.409 55.1933 91.8859 54.4614C91.2117 54.1101 90.5258 53.7068 89.8283 53.2515C89.1462 52.7911 88.772 52.4761 88.7059 52.3066C88.557 51.9251 88.5318 51.6384 88.6302 51.4463C88.7384 51.2351 88.9767 51.0686 89.3451 50.9469C89.3911 50.9316 89.805 51.0819 90.5867 51.3978C90.8996 51.5336 91.6083 51.8177 92.7128 52.2502C92.8583 51.4684 92.887 50.6534 92.7987 49.8053C92.7203 48.938 92.5157 48.0805 92.185 47.2328C91.7991 46.2438 91.2937 45.5257 90.6686 45.0783C90.0589 44.6259 89.3242 44.5417 88.4647 44.8258C87.4823 45.1505 86.7397 45.7788 86.2368 46.7107C85.7339 47.6425 85.4743 48.7093 85.4579 49.9109C85.436 51.0985 85.6345 52.2292 86.0534 53.3029C86.3069 53.9528 86.6689 54.5031 87.1393 54.9537C87.6195 55.3852 88.1352 55.6853 88.6862 55.854C89.2373 56.0228 89.7354 56.0336 90.1805 55.8865Z" fill="white"/>
<path d="M108.165 51.5209C108.198 51.7814 108.123 51.9895 107.941 52.1453C107.765 52.3152 107.5 52.4585 107.147 52.5752C106.088 52.9253 105.473 52.8813 105.302 52.4434L105.126 51.5924C104.812 52.0311 104.421 52.4953 103.954 52.9848C103.486 53.4742 103.061 53.7824 102.677 53.9092C100.405 54.6601 99.0021 54.3503 98.4674 52.9799C97.5579 50.6487 97.3311 47.8686 97.7869 44.6395C97.8443 44.2537 97.9452 43.9571 98.0896 43.7499C98.2494 43.5376 98.5825 43.3477 99.0891 43.1803C99.6263 43.0027 100.053 42.9415 100.369 42.9965C100.695 43.0323 100.894 43.1421 100.965 43.3257C100.982 43.3681 100.947 43.5232 100.861 43.7909C100.764 44.0304 100.69 44.2623 100.638 44.4865C100.061 47.1816 100.183 49.5817 101.004 51.6868C101.076 51.8705 101.216 52.0076 101.425 52.0981C101.633 52.1887 101.799 52.2137 101.922 52.1731C102.259 52.0615 102.769 51.7254 103.452 51.1649C104.15 50.5993 104.653 50.0901 104.961 49.6372L104.752 47.7684C104.505 45.5371 104.36 44.1655 104.316 43.6536C104.265 43.0327 104.3 42.5025 104.424 42.063C104.557 41.6044 104.915 41.2786 105.498 41.0858C106.312 40.8169 106.806 40.9085 106.983 41.3607C107.01 41.4313 107.023 41.5307 107.021 41.659C107.029 41.768 107.039 41.8604 107.051 41.9361L107.47 45.6737C107.797 48.6441 108.029 50.5931 108.165 51.5209Z" fill="white"/>
<path d="M108.163 37.3817C107.992 36.9437 107.987 36.507 108.146 36.0715C108.321 35.6309 108.677 35.3219 109.214 35.1443C109.782 34.9566 110.336 34.9567 110.878 35.1447C111.434 35.3276 111.792 35.6239 111.952 36.0336C112.112 36.4433 112.035 36.8676 111.721 37.3063C111.407 37.7451 110.966 38.0583 110.398 38.246C109.845 38.4287 109.374 38.441 108.983 38.2831C108.602 38.106 108.329 37.8055 108.163 37.3817ZM110.333 49.2732C110.234 49.0188 109.925 46.25 109.406 40.9665L108.962 40.228C108.901 40.0726 108.954 39.9196 109.121 39.7688C109.287 39.6181 109.654 39.4489 110.222 39.2612C110.667 39.114 111.034 39.1205 111.321 39.2806C111.625 39.4356 111.837 39.6686 111.958 39.9794C111.991 40.0642 112.02 40.1823 112.044 40.3337L112.972 48.6403L113.416 49.3788C113.476 49.5342 113.423 49.6873 113.257 49.838C113.09 49.9887 112.723 50.158 112.155 50.3457C111.649 50.5131 111.266 50.488 111.008 50.2703C110.744 50.0384 110.519 49.7061 110.333 49.2732Z" fill="white"/>
<path d="M123.624 46.3394C119.855 48.048 117.707 49.0289 117.182 49.2822C116.637 49.5264 116.356 49.651 116.341 49.6561C116.064 49.7474 115.805 49.7933 115.562 49.7937C115.305 49.7991 115.138 49.7504 115.064 49.6476C115.005 49.5871 114.894 49.4802 114.731 49.327C114.567 49.1737 114.46 49.0335 114.411 48.9064C114.361 48.7792 114.361 48.6677 114.41 48.5716C114.454 48.4615 114.598 48.3421 114.842 48.2135C115.071 48.0899 115.232 48.0129 115.324 47.9825C115.785 47.0325 116.382 45.7426 117.115 44.1126C118.142 41.8591 118.939 40.1922 119.505 39.1118L115.08 41.0289C114.604 41.1862 114.281 41.0458 114.11 40.6078C113.972 40.2546 113.973 39.8558 114.111 39.4112C114.149 39.287 114.712 38.9735 115.798 38.4709C116.884 37.9683 118.076 37.4469 119.372 36.9066C120.679 36.3471 121.517 36.0065 121.885 35.8847C122.468 35.6919 122.881 35.9063 123.124 36.528C123.195 36.7117 123.195 36.9111 123.123 37.1263C123.046 37.3274 122.924 37.5033 122.757 37.654L122.408 38.2241C121.872 39.2943 121.23 40.647 120.482 42.282L118.571 46.3111C120.886 45.2269 122.381 44.5732 123.056 44.35C123.639 44.1572 124.052 44.3716 124.295 44.9933C124.389 45.2335 124.359 45.4905 124.206 45.7644C124.063 46.0191 123.869 46.2108 123.624 46.3394Z" fill="white"/>
<path d="M128.247 40.0263C128.304 40.4382 128.253 40.7503 128.093 40.9626C127.948 41.1698 127.623 41.3572 127.116 41.5246C126.257 41.8087 125.719 41.6753 125.505 41.1243C125.367 40.7711 125.241 40.1825 125.128 39.3587C125.024 38.5157 124.906 37.3905 124.772 35.983C124.591 34.097 124.413 32.5291 124.237 31.2792C124.12 30.5362 124.53 30.0099 125.467 29.7005C125.927 29.5482 126.31 29.5093 126.617 29.5835C126.923 29.6577 127.098 29.8392 127.141 30.128L128.247 40.0263ZM127.64 45.4665C127.241 45.5984 126.844 45.5784 126.447 45.4063C126.045 45.2202 125.773 44.9434 125.63 44.5761C125.486 44.2087 125.538 43.8088 125.785 43.3762C126.027 42.9295 126.416 42.6173 126.953 42.4397C127.429 42.2825 127.87 42.2565 128.275 42.3619C128.674 42.4531 128.957 42.7107 129.122 43.1345C129.293 43.5725 129.219 44.0276 128.901 44.4996C128.598 44.9667 128.178 45.2889 127.64 45.4665Z" fill="white"/>
<path fill-rule="evenodd" clip-rule="evenodd" d="M90.6684 45.0783C90.0587 44.6258 89.324 44.5417 88.4645 44.8258C87.4821 45.1505 86.7395 45.7788 86.2366 46.7106C85.7337 47.6424 85.4741 48.7092 85.4577 49.9109C85.4358 51.0985 85.6343 52.2291 86.0532 53.3029C86.3067 53.9528 86.6687 54.5031 87.1391 54.9537C87.6193 55.3851 88.135 55.6852 88.686 55.854C89.2371 56.0227 89.7351 56.0336 90.1803 55.8864C90.3481 55.8309 90.5101 55.7588 90.6661 55.6701C91.1235 55.41 91.5301 55.0071 91.8857 54.4614C91.5759 54.3 91.2637 54.1276 90.949 53.9442C90.5787 53.7284 90.2051 53.4975 89.8281 53.2514C89.1459 52.791 88.7718 52.4761 88.7057 52.3065C88.5568 51.925 88.5316 51.6383 88.63 51.4463C88.7382 51.2351 88.9765 51.0686 89.3449 50.9468C89.3909 50.9316 89.8048 51.0819 90.5865 51.3977C90.6942 51.4445 90.8488 51.5088 91.0502 51.5907C91.4341 51.7467 91.9882 51.9665 92.7126 52.2501C92.8148 51.7011 92.8593 51.1357 92.8462 50.5539C92.8407 50.3073 92.8248 50.0578 92.7985 49.8053C92.7201 48.938 92.5155 48.0805 92.1848 47.2328C91.7989 46.2438 91.2935 45.5256 90.6684 45.0783ZM80.5349 48.9833C80.7941 47.1867 81.5189 45.5682 82.7112 44.1615C83.9171 42.7177 85.4997 41.6803 87.4072 41.0498C89.3914 40.394 91.3632 40.4718 93.1699 41.3964C94.3905 42.0045 95.3512 42.9568 96.1035 44.1476C96.1898 43.7257 96.3412 43.2795 96.6186 42.8814L96.6353 42.8575L96.6529 42.834C97.1379 42.1896 97.9162 41.8589 98.4983 41.6665C99.1163 41.4622 99.8768 41.2898 100.634 41.4063C101.206 41.4799 102.143 41.7567 102.562 42.669C102.586 42.3225 102.641 41.9851 102.731 41.6613L102.735 41.6482C103.047 40.5726 103.908 39.9022 104.907 39.572C105.426 39.4006 106.114 39.2446 106.824 39.376C106.988 39.4064 107.144 39.4504 107.291 39.5068C107.327 39.4063 107.371 39.3105 107.421 39.2199C107.006 38.8598 106.709 38.4129 106.518 37.9252C106.216 37.1509 106.203 36.3417 106.49 35.558L106.497 35.5389L106.504 35.52C106.88 34.5736 107.664 33.9475 108.623 33.6305C109.559 33.3213 110.536 33.3108 111.48 33.6347C112.389 33.9368 113.219 34.522 113.597 35.49C113.928 36.3402 113.785 37.1636 113.389 37.8635C113.479 37.808 113.569 37.7556 113.656 37.7072C113.996 37.5174 114.457 37.2911 115.013 37.0338C116.121 36.521 117.332 35.9913 118.643 35.4447C119.923 34.8969 120.836 34.5222 121.294 34.3709C121.737 34.2244 122.282 34.1468 122.843 34.267C122.728 33.2073 122.616 32.2839 122.505 31.4954C122.397 30.7872 122.53 30.0404 123.037 29.3901C123.517 28.7726 124.207 28.4077 124.876 28.1866C125.5 27.9802 126.274 27.8371 127.061 28.0281C127.48 28.1295 127.926 28.3356 128.285 28.7083C128.644 29.0811 128.812 29.5133 128.872 29.9078L128.876 29.9355L129.983 39.8448C130.04 40.2709 130.044 40.806 129.837 41.33C130.274 41.6671 130.58 42.1126 130.766 42.5909C131.151 43.5776 130.926 44.5393 130.393 45.336C129.891 46.1045 129.158 46.6736 128.231 46.9802C127.38 47.2616 126.502 47.2082 125.702 46.861L125.682 46.8522L125.662 46.843C125.631 46.8286 125.6 46.8139 125.57 46.7989C125.301 47.1735 124.944 47.4976 124.492 47.7356L124.445 47.7603L124.396 47.7823C120.612 49.4973 118.493 50.4656 117.993 50.7067L117.97 50.718L117.946 50.7287C117.673 50.851 117.464 50.944 117.322 51.0073L117.153 51.082L117.096 51.1069L117.061 51.1213L117.029 51.1345C117.021 51.1376 116.981 51.1534 116.931 51.1698C116.51 51.3089 116.057 51.3989 115.584 51.402C115.348 51.4059 114.813 51.3941 114.303 51.1318C114.073 51.3034 113.831 51.4277 113.639 51.5161C113.371 51.6393 113.068 51.7529 112.746 51.8594C112.011 52.1023 110.865 52.2593 109.917 51.5286C109.944 52.1426 109.733 52.7864 109.171 53.2883C108.746 53.6844 108.222 53.9287 107.738 54.0889C107.136 54.2878 106.436 54.457 105.756 54.4083C105.539 54.3928 105.295 54.353 105.045 54.2693C104.55 54.7505 103.959 55.1942 103.267 55.423C102.125 55.8005 100.95 56.0212 99.8574 55.8662C99.814 55.9942 99.7593 56.1217 99.6921 56.2482C99.3025 57.0353 98.5806 57.4984 97.8443 57.7418C97.3582 57.9025 96.8887 57.8608 96.6645 57.8351C96.3784 57.8022 96.076 57.7379 95.779 57.662C95.4661 57.5819 95.1115 57.4764 94.7184 57.3478C93.7301 58.2724 92.5503 58.9653 91.1926 59.4141C89.0066 60.1366 86.8541 60.1233 84.9742 59.0554C83.2152 58.0561 81.9991 56.3984 81.194 54.3348C80.5051 52.569 80.276 50.7783 80.5349 48.9833ZM94.1931 55.4453C93.2572 56.6 92.0602 57.4183 90.6021 57.9003C88.7755 58.5041 87.2054 58.4328 85.8919 57.6867C84.5784 56.9405 83.5607 55.642 82.8386 53.7912C82.2378 52.2512 82.0473 50.7191 82.2671 49.195C82.487 47.6709 83.0955 46.3213 84.0927 45.1463C85.0844 43.9572 86.3861 43.0963 87.9978 42.5636C89.5634 42.0461 91.0073 42.1271 92.3295 42.8066C93.6615 43.4669 94.7078 44.7719 95.4684 46.7216C95.606 47.0743 95.7203 47.4328 95.8112 47.7973C95.9898 48.5133 96.0784 49.2521 96.0769 50.0136C96.0765 50.2437 96.0676 50.4718 96.0503 50.6978C95.9812 51.6008 95.7777 52.4718 95.4397 53.3106C96.0855 53.5692 96.6156 53.7897 97.03 53.9719C97.7359 54.2823 98.1061 54.4821 98.1409 54.5711C98.2387 54.8219 98.2652 55.0555 98.2202 55.2717C98.1994 55.3721 98.1631 55.4688 98.1115 55.5617C97.9694 55.8639 97.6835 56.086 97.2537 56.2281C96.9314 56.3346 95.9112 56.0737 94.1931 55.4453ZM98.4001 52.8037C98.422 52.8627 98.4444 52.9214 98.4672 52.9798C98.6807 53.5271 99.0327 53.9052 99.5231 54.1142C99.6275 54.1586 99.7381 54.1955 99.855 54.2246C100.565 54.4016 101.505 54.2965 102.677 53.9092C103.004 53.8011 103.361 53.5613 103.749 53.1897C103.816 53.1253 103.885 53.057 103.954 52.9847C103.998 52.9381 104.042 52.8917 104.085 52.8455C104.151 52.775 104.215 52.7049 104.278 52.6354C104.283 52.6304 104.287 52.6254 104.292 52.6204C104.383 52.5187 104.471 52.4182 104.556 52.3188C104.558 52.3161 104.56 52.3134 104.562 52.3107C104.772 52.0642 104.96 51.8247 105.126 51.5923L105.302 52.4433C105.425 52.759 105.779 52.87 106.363 52.7763C106.59 52.74 106.851 52.673 107.147 52.5752C107.5 52.4585 107.765 52.3152 107.941 52.1453C108.123 51.9895 108.198 51.7813 108.165 51.5208C108.029 50.5931 107.797 48.644 107.47 45.6737L107.051 41.9361C107.039 41.8604 107.029 41.768 107.021 41.6589C107.023 41.5307 107.01 41.4312 106.983 41.3606C106.806 40.9085 106.311 40.8169 105.498 41.0858C104.915 41.2786 104.556 41.6043 104.423 42.063C104.3 42.5024 104.265 43.0326 104.316 43.6536C104.36 44.1655 104.505 45.5371 104.752 47.7683L104.961 49.6371C104.716 49.9969 104.348 50.3922 103.857 50.8231C103.73 50.9346 103.595 51.0485 103.452 51.1648C103.304 51.2864 103.164 51.3973 103.032 51.4977C102.556 51.8605 102.186 52.0856 101.921 52.173C101.799 52.2136 101.633 52.1887 101.424 52.0981C101.216 52.0076 101.076 51.8704 101.004 51.6868C100.183 49.5816 100.061 47.1815 100.638 44.4865C100.689 44.2622 100.763 44.0303 100.861 43.7909C100.947 43.5231 100.982 43.3681 100.965 43.3257C100.893 43.142 100.695 43.0323 100.369 42.9964C100.053 42.9414 99.6261 43.0027 99.0889 43.1802C98.5823 43.3477 98.2492 43.5375 98.0894 43.7499C97.945 43.9571 97.8441 44.2536 97.7866 44.6395C97.6397 45.6805 97.5637 46.6749 97.5587 47.6227C97.5542 48.4567 97.6048 49.2545 97.7102 50.0163C97.7384 50.2195 97.7704 50.4201 97.8063 50.6181C97.9456 51.3852 98.1435 52.1137 98.4001 52.8037ZM109.406 40.9665C109.925 46.2499 110.234 49.0188 110.333 49.2731C110.519 49.706 110.744 50.0384 111.008 50.2702C111.266 50.4879 111.648 50.5131 112.155 50.3456C112.555 50.2133 112.856 50.0902 113.057 49.9763C113.141 49.9286 113.207 49.8825 113.257 49.838C113.423 49.6872 113.476 49.5342 113.415 49.3788L112.971 48.6403L112.044 40.3336C112.02 40.1822 111.991 40.0641 111.958 39.9793C111.883 39.7889 111.775 39.6277 111.632 39.4957C111.542 39.4123 111.439 39.3406 111.321 39.2806C111.157 39.1894 110.968 39.148 110.753 39.1565C110.591 39.1629 110.414 39.1978 110.222 39.2611C109.654 39.4488 109.287 39.6181 109.12 39.7688C109.053 39.8295 109.005 39.8905 108.975 39.9519C108.93 40.0431 108.925 40.1351 108.962 40.228L109.406 40.9665ZM119.505 39.1117C119.199 39.6949 118.826 40.449 118.386 41.374C118.011 42.1626 117.588 43.0754 117.115 44.1125C116.382 45.7425 115.785 47.0325 115.324 47.9824C115.231 48.0129 115.071 48.0899 114.842 48.2134C114.807 48.2316 114.775 48.2496 114.744 48.2674C114.725 48.2784 114.707 48.2893 114.69 48.3002C114.579 48.3698 114.499 48.4365 114.451 48.5003C114.433 48.5245 114.419 48.5483 114.41 48.5716C114.364 48.6602 114.361 48.7621 114.4 48.8773C114.403 48.8869 114.406 48.8966 114.41 48.9063C114.426 48.946 114.447 48.9869 114.473 49.0291C114.532 49.1222 114.618 49.2215 114.73 49.3269C114.894 49.4801 115.005 49.587 115.063 49.6475C115.067 49.6523 115.071 49.657 115.074 49.6616C115.093 49.6838 115.117 49.7032 115.145 49.7198C115.155 49.7253 115.164 49.7304 115.175 49.7353C115.265 49.7777 115.394 49.7972 115.562 49.7936C115.805 49.7932 116.064 49.7474 116.34 49.6561C116.356 49.651 116.636 49.5263 117.182 49.2821C117.707 49.0288 119.855 48.0479 123.624 46.3394C123.869 46.2107 124.062 46.0191 124.206 45.7644C124.226 45.7284 124.244 45.6927 124.259 45.6574C124.361 45.4312 124.375 45.2169 124.303 45.0145C124.3 45.0074 124.297 45.0003 124.295 44.9932C124.175 44.6863 124.014 44.4787 123.811 44.3703C123.603 44.2591 123.351 44.2523 123.056 44.35C122.658 44.4815 121.975 44.7627 121.007 45.1933C120.333 45.4933 119.521 45.8659 118.57 46.3111L120.482 42.282C121.23 40.6469 121.872 39.2943 122.408 38.224L122.757 37.6539C122.923 37.5032 123.045 37.3273 123.123 37.1262C123.124 37.1218 123.126 37.1174 123.127 37.113C123.195 36.9028 123.194 36.7078 123.123 36.5279C123.102 36.473 123.079 36.4213 123.055 36.3727C123.027 36.3151 122.996 36.262 122.964 36.2134C122.889 36.1001 122.803 36.011 122.708 35.9462C122.487 35.7966 122.213 35.7761 121.885 35.8847C121.516 36.0064 120.679 36.347 119.372 36.9065C118.075 37.4468 116.884 37.9683 115.798 38.4709C114.711 38.9735 114.149 39.2869 114.111 39.4112C113.973 39.8557 113.972 40.2546 114.11 40.6078C114.281 41.0458 114.604 41.1861 115.08 41.0288L119.505 39.1117ZM124.774 35.9991C124.814 36.4278 124.854 36.8303 124.891 37.2066C124.977 38.0587 125.056 38.7761 125.127 39.3587C125.241 40.1825 125.367 40.771 125.504 41.1242C125.526 41.1787 125.55 41.2292 125.578 41.2755C125.774 41.6047 126.129 41.7276 126.643 41.6443C126.788 41.6208 126.946 41.5809 127.116 41.5245C127.623 41.3571 127.948 41.1698 128.093 40.9625C128.146 40.8913 128.188 40.8088 128.217 40.715C128.275 40.5295 128.285 40.2999 128.247 40.0262L127.141 30.1279C127.097 29.8392 126.923 29.6577 126.616 29.5835C126.31 29.5092 125.927 29.5482 125.466 29.7004C124.53 30.0099 124.12 30.5361 124.237 31.2792C124.412 32.529 124.591 34.097 124.772 35.983C124.773 35.9883 124.773 35.9937 124.774 35.9991ZM128.736 42.5809C128.605 42.4753 128.451 42.4022 128.275 42.3618C128.008 42.2924 127.726 42.28 127.428 42.3245C127.274 42.3476 127.116 42.386 126.953 42.4397C126.472 42.5988 126.109 42.866 125.865 43.2412C125.837 43.2847 125.81 43.3297 125.785 43.3761C125.701 43.5223 125.64 43.6648 125.601 43.8036C125.527 44.0675 125.534 44.3178 125.621 44.5548C125.624 44.5619 125.627 44.5689 125.629 44.576C125.726 44.8233 125.881 45.0295 126.094 45.1947C126.198 45.2749 126.316 45.3454 126.447 45.4063C126.843 45.5783 127.241 45.5984 127.64 45.4665C128.177 45.2889 128.598 44.9666 128.901 44.4996C129.219 44.0275 129.293 43.5725 129.122 43.1345C129.03 42.8983 128.901 42.7138 128.736 42.5809ZM111.458 37.6147C111.554 37.5199 111.641 37.4171 111.721 37.3063C112.035 36.8675 112.112 36.4433 111.952 36.0336C111.792 35.6238 111.434 35.3275 110.877 35.1446C110.336 34.9567 109.782 34.9565 109.214 35.1443C108.676 35.3218 108.32 35.6309 108.146 36.0714C107.986 36.5069 107.992 36.9436 108.163 37.3816C108.283 37.69 108.461 37.933 108.695 38.1108C108.783 38.1774 108.879 38.2348 108.983 38.2831C109.244 38.3886 109.541 38.4181 109.875 38.3715C110.04 38.3484 110.215 38.3065 110.398 38.246C110.822 38.1057 111.176 37.8953 111.458 37.6147Z" fill="#252B51"/>
</svg>
